<?xml version="1.0" encoding="UTF-8" standalone="no"?>
<svg version="1.1" xmlns="http://www.w3.org/2000/svg" xmlns:xlink="http://www.w3.org/1999/xlink" viewBox="0 0 900 1000">
    <rect width="900" height="1000" style="fill:#ffce59;stroke-width:2;stroke:black"/>

    <line x1="50" y1="50" x2="850" y2="50" style="stroke-width:2;stroke:black"/>
    <line x1="50" y1="150" x2="850" y2="150" style="stroke-width:2;stroke:black"/>
    <line x1="50" y1="250" x2="850" y2="250" style="stroke-width:2;stroke:black"/>
    <line x1="50" y1="350" x2="850" y2="350" style="stroke-width:2;stroke:black"/>
    <line x1="50" y1="450" x2="850" y2="450" style="stroke-width:2;stroke:black"/>
    <line x1="50" y1="550" x2="850" y2="550" style="stroke-width:2;stroke:black"/>
    <line x1="50" y1="650" x2="850" y2="650" style="stroke-width:2;stroke:black"/>
    <line x1="50" y1="750" x2="850" y2="750" style="stroke-width:2;stroke:black"/>
    <line x1="50" y1="850" x2="850" y2="850" style="stroke-width:2;stroke:black"/>
    <line x1="50" y1="950" x2="850" y2="950" style="stroke-width:2;stroke:black"/>

    <line x1="50" y1="50" x2="50" y2="950" style="stroke-width:2;stroke:black"/>
    <line x1="150" y1="50" x2="150" y2="450" style="stroke-width:2;stroke:black"/>
    <line x1="250" y1="50" x2="250" y2="450" style="stroke-width:2;stroke:black"/>
    <line x1="350" y1="50" x2="350" y2="450" style="stroke-width:2;stroke:black"/>
    <line x1="450" y1="50" x2="450" y2="450" style="stroke-width:2;stroke:black"/>
    <line x1="550" y1="50" x2="550" y2="450" style="stroke-width:2;stroke:black"/>
    <line x1="650" y1="50" x2="650" y2="450" style="stroke-width:2;stroke:black"/>
    <line x1="750" y1="50" x2="750" y2="450" style="stroke-width:2;stroke:black"/>
    <line x1="850" y1="50" x2="850" y2="950" style="stroke-width:2;stroke:black"/>

    <line x1="150" y1="550" x2="150" y2="950" style="stroke-width:2;stroke:black"/>
    <line x1="250" y1="550" x2="250" y2="950" style="stroke-width:2;stroke:black"/>
    <line x1="350" y1="550" x2="350" y2="950" style="stroke-width:2;stroke:black"/>
    <line x1="450" y1="550" x2="450" y2="950" style="stroke-width:2;stroke:black"/>
    <line x1="550" y1="550" x2="550" y2="950" style="stroke-width:2;stroke:black"/>
    <line x1="650" y1="550" x2="650" y2="950" style="stroke-width:2;stroke:black"/>
    <line x1="750" y1="550" x2="750" y2="950" style="stroke-width:2;stroke:black"/>

    <line x1="350" y1="50" x2="550" y2="250" style="stroke-width:2;stroke:black"/>
    <line x1="350" y1="250" x2="550" y2="50" style="stroke-width:2;stroke:black"/>

    <line x1="350" y1="750" x2="550" y2="950" style="stroke-width:2;stroke:black"/>
    <line x1="350" y1="950" x2="550" y2="750" style="stroke-width:2;stroke:black"/>

    <g stroke="#333" stroke-width="1">
      <path d="m144.47 223.07v20.912h-20.912m31.96-20.912v20.912h20.912m-32.177 32.726 0.16902-20.911-20.911-0.16902m31.79 21.169 0.16903-20.911 20.911 0.16903" fill="none"/>
      <path transform="translate(100.04 99.997)" d="m144.47 223.07v20.912h-20.912m31.96-20.912v20.912h20.912m-31.897 32.704-0.0497-20.912-20.912 0.0497m32.01 20.836-0.0497-20.912 20.912-0.0497" fill="none"/>
      <path transform="translate(300.02 99.887)" d="m144.47 223.07v20.912h-20.912m31.96-20.912v20.912h20.912m-31.897 32.704-0.0497-20.912-20.912 0.0497m32.01 20.836-0.0497-20.912 20.912-0.0497" fill="none"/>
      <path transform="translate(499.9 100.15)" d="m144.47 223.07v20.912h-20.912m31.96-20.912v20.912h20.912m-31.897 32.704-0.0497-20.912-20.912 0.0497m32.01 20.836-0.0497-20.912 20.912-0.0497" fill="none"/>
      <path transform="translate(600.11 -.011036)" d="m144.47 223.07v20.912h-20.912m31.96-20.912v20.912h20.912m-31.897 32.704-0.0497-20.912-20.912 0.0497m32.01 20.836-0.0497-20.912 20.912-0.0497" fill="none"/>
      <path transform="translate(600.16 500.19)" d="m144.47 223.07v20.912h-20.912m31.96-20.912v20.912h20.912m-31.897 32.704-0.0497-20.912-20.912 0.0497m32.01 20.836-0.0497-20.912 20.912-0.0497" fill="none"/>
      <path transform="translate(500.17 400.04)" d="m144.47 223.07v20.912h-20.912m31.96-20.912v20.912h20.912m-31.897 32.704-0.0497-20.912-20.912 0.0497m32.01 20.836-0.0497-20.912 20.912-0.0497" fill="none"/>
      <path transform="translate(300.09 400.08)" d="m144.47 223.07v20.912h-20.912m31.96-20.912v20.912h20.912m-31.897 32.704-0.0497-20.912-20.912 0.0497m32.01 20.836-0.0497-20.912 20.912-0.0497" fill="none"/>
      <path transform="translate(99.986 399.95)" d="m144.47 223.07v20.912h-20.912m31.96-20.912v20.912h20.912m-31.897 32.704-0.0497-20.912-20.912 0.0497m32.01 20.836-0.0497-20.912 20.912-0.0497" fill="none"/>
      <path transform="translate(-.081294 500.29)" d="m144.47 223.07v20.912h-20.912m31.96-20.912v20.912h20.912m-31.897 32.704-0.0497-20.912-20.912 0.0497m32.01 20.836-0.0497-20.912 20.912-0.0497" fill="none"/>
      <path transform="translate(-100.29 100.44)" d="m155.52 223.07v20.912h20.912m-20.848 32.678-0.0497-20.912 20.912-0.0497" fill="none"/>
      <path d="m55.431 623.1v20.912h20.912m-20.848 32.678-0.0497-20.912 20.912-0.0497" fill="none"/>
      <path d="m844.71 323.47v20.912h-20.912m20.848 32.678 0.0497-20.912-20.912-0.0497" fill="none"/>
      <path d="m844.96 623.65v20.912h-20.912m20.848 32.678 0.0497-20.912-20.912-0.0497" fill="none"/>
    </g>

</svg>
